<mxfile host="app.diagrams.net" agent="Mozilla/5.0 (Macintosh; Intel Mac OS X 10_15_7) AppleWebKit/537.36 (KHTML, like Gecko) Chrome/138.0.0.0 Safari/537.36" version="28.0.6">
  <diagram name="Page-1" id="Z6ekB55wMZZfvL9X6uOf">
    <mxGraphModel dx="1234" dy="790" grid="1" gridSize="10" guides="1" tooltips="1" connect="1" arrows="1" fold="1" page="0" pageScale="1" pageWidth="1100" pageHeight="850" math="0" shadow="0">
      <root>
        <mxCell id="0" />
        <mxCell id="1" parent="0" />
        <mxCell id="pL6HxztiAhhJJcaxuupI-67" value="" style="rounded=0;whiteSpace=wrap;html=1;fontFamily=Helvetica;fontSize=11;fontColor=default;labelBackgroundColor=default;" vertex="1" parent="1">
          <mxGeometry x="130" y="590" width="850" height="550" as="geometry" />
        </mxCell>
        <mxCell id="pL6HxztiAhhJJcaxuupI-69" value="" style="rounded=1;whiteSpace=wrap;html=1;fontFamily=Helvetica;fontSize=11;labelBackgroundColor=default;fillColor=#dae8fc;strokeColor=#6c8ebf;" vertex="1" parent="1">
          <mxGeometry x="150" y="710" width="120" height="280" as="geometry" />
        </mxCell>
        <mxCell id="pL6HxztiAhhJJcaxuupI-15" value="" style="rounded=0;whiteSpace=wrap;html=1;fontFamily=Helvetica;fontSize=11;fontColor=default;labelBackgroundColor=default;" vertex="1" parent="1">
          <mxGeometry x="239.07" y="160" width="610.93" height="230" as="geometry" />
        </mxCell>
        <mxCell id="pL6HxztiAhhJJcaxuupI-7" style="rounded=0;orthogonalLoop=1;jettySize=auto;html=1;entryX=0.25;entryY=0;entryDx=0;entryDy=0;exitX=0.91;exitY=0.03;exitDx=0;exitDy=0;exitPerimeter=0;" edge="1" parent="1" source="pL6HxztiAhhJJcaxuupI-1" target="pL6HxztiAhhJJcaxuupI-4">
          <mxGeometry relative="1" as="geometry" />
        </mxCell>
        <mxCell id="pL6HxztiAhhJJcaxuupI-11" value="Send M1" style="edgeLabel;html=1;align=center;verticalAlign=middle;resizable=0;points=[];fontFamily=Helvetica;fontSize=11;fontColor=default;labelBackgroundColor=default;" vertex="1" connectable="0" parent="pL6HxztiAhhJJcaxuupI-7">
          <mxGeometry x="-0.3556" y="3" relative="1" as="geometry">
            <mxPoint x="-1" as="offset" />
          </mxGeometry>
        </mxCell>
        <mxCell id="pL6HxztiAhhJJcaxuupI-1" value="User A" style="sketch=0;aspect=fixed;pointerEvents=1;shadow=0;dashed=0;html=1;strokeColor=none;labelPosition=center;verticalLabelPosition=bottom;verticalAlign=top;align=center;fillColor=#00188D;shape=mxgraph.mscae.enterprise.client_application" vertex="1" parent="1">
          <mxGeometry x="260" y="180" width="78.13" height="50" as="geometry" />
        </mxCell>
        <mxCell id="pL6HxztiAhhJJcaxuupI-10" style="edgeStyle=none;shape=connector;rounded=0;orthogonalLoop=1;jettySize=auto;html=1;entryX=0.25;entryY=1;entryDx=0;entryDy=0;strokeColor=default;align=center;verticalAlign=middle;fontFamily=Helvetica;fontSize=11;fontColor=default;labelBackgroundColor=default;endArrow=classic;exitX=1.024;exitY=0.8;exitDx=0;exitDy=0;exitPerimeter=0;" edge="1" parent="1" source="pL6HxztiAhhJJcaxuupI-2" target="pL6HxztiAhhJJcaxuupI-4">
          <mxGeometry relative="1" as="geometry" />
        </mxCell>
        <mxCell id="pL6HxztiAhhJJcaxuupI-13" value="Send M2" style="edgeLabel;html=1;align=center;verticalAlign=middle;resizable=0;points=[];fontFamily=Helvetica;fontSize=11;fontColor=default;labelBackgroundColor=default;" vertex="1" connectable="0" parent="pL6HxztiAhhJJcaxuupI-10">
          <mxGeometry x="0.1803" y="-1" relative="1" as="geometry">
            <mxPoint as="offset" />
          </mxGeometry>
        </mxCell>
        <mxCell id="pL6HxztiAhhJJcaxuupI-2" value="User B" style="sketch=0;aspect=fixed;pointerEvents=1;shadow=0;dashed=0;html=1;strokeColor=none;labelPosition=center;verticalLabelPosition=bottom;verticalAlign=top;align=center;fillColor=#00188D;shape=mxgraph.mscae.enterprise.client_application" vertex="1" parent="1">
          <mxGeometry x="260" y="310" width="78.13" height="50" as="geometry" />
        </mxCell>
        <mxCell id="pL6HxztiAhhJJcaxuupI-4" value="Chat Server" style="rounded=1;whiteSpace=wrap;html=1;" vertex="1" parent="1">
          <mxGeometry x="450" y="240" width="120" height="60" as="geometry" />
        </mxCell>
        <mxCell id="pL6HxztiAhhJJcaxuupI-6" value="" style="edgeStyle=orthogonalEdgeStyle;rounded=0;orthogonalLoop=1;jettySize=auto;html=1;startArrow=classic;startFill=0;endArrow=classic;endFill=0;" edge="1" parent="1" source="pL6HxztiAhhJJcaxuupI-5" target="pL6HxztiAhhJJcaxuupI-4">
          <mxGeometry relative="1" as="geometry" />
        </mxCell>
        <mxCell id="pL6HxztiAhhJJcaxuupI-66" value="Asynchronous&amp;nbsp;&lt;div&gt;Storage&lt;/div&gt;" style="edgeLabel;html=1;align=center;verticalAlign=middle;resizable=0;points=[];fontFamily=Helvetica;fontSize=11;fontColor=default;labelBackgroundColor=default;" vertex="1" connectable="0" parent="pL6HxztiAhhJJcaxuupI-6">
          <mxGeometry x="-0.0364" y="-1" relative="1" as="geometry">
            <mxPoint as="offset" />
          </mxGeometry>
        </mxCell>
        <mxCell id="pL6HxztiAhhJJcaxuupI-5" value="Data Storage" style="shape=cylinder3;whiteSpace=wrap;html=1;boundedLbl=1;backgroundOutline=1;size=15;" vertex="1" parent="1">
          <mxGeometry x="720" y="230" width="100" height="80" as="geometry" />
        </mxCell>
        <mxCell id="pL6HxztiAhhJJcaxuupI-8" style="rounded=0;orthogonalLoop=1;jettySize=auto;html=1;entryX=0.986;entryY=0.66;entryDx=0;entryDy=0;entryPerimeter=0;" edge="1" parent="1" source="pL6HxztiAhhJJcaxuupI-4" target="pL6HxztiAhhJJcaxuupI-1">
          <mxGeometry relative="1" as="geometry" />
        </mxCell>
        <mxCell id="pL6HxztiAhhJJcaxuupI-12" value="Receive M2" style="edgeLabel;html=1;align=center;verticalAlign=middle;resizable=0;points=[];fontFamily=Helvetica;fontSize=11;fontColor=default;labelBackgroundColor=default;" vertex="1" connectable="0" parent="pL6HxztiAhhJJcaxuupI-8">
          <mxGeometry x="0.0487" y="-1" relative="1" as="geometry">
            <mxPoint as="offset" />
          </mxGeometry>
        </mxCell>
        <mxCell id="pL6HxztiAhhJJcaxuupI-9" style="edgeStyle=none;shape=connector;rounded=0;orthogonalLoop=1;jettySize=auto;html=1;strokeColor=default;align=center;verticalAlign=middle;fontFamily=Helvetica;fontSize=11;fontColor=default;labelBackgroundColor=default;endArrow=classic;exitX=0;exitY=0.75;exitDx=0;exitDy=0;" edge="1" parent="1" source="pL6HxztiAhhJJcaxuupI-4" target="pL6HxztiAhhJJcaxuupI-2">
          <mxGeometry relative="1" as="geometry" />
        </mxCell>
        <mxCell id="pL6HxztiAhhJJcaxuupI-14" value="Receive M1" style="edgeLabel;html=1;align=center;verticalAlign=middle;resizable=0;points=[];fontFamily=Helvetica;fontSize=11;fontColor=default;labelBackgroundColor=default;" vertex="1" connectable="0" parent="pL6HxztiAhhJJcaxuupI-9">
          <mxGeometry x="-0.0339" y="-3" relative="1" as="geometry">
            <mxPoint as="offset" />
          </mxGeometry>
        </mxCell>
        <mxCell id="pL6HxztiAhhJJcaxuupI-44" style="edgeStyle=none;shape=connector;rounded=0;orthogonalLoop=1;jettySize=auto;html=1;entryX=0;entryY=0.5;entryDx=0;entryDy=0;strokeColor=default;align=center;verticalAlign=middle;fontFamily=Helvetica;fontSize=11;fontColor=default;labelBackgroundColor=default;endArrow=classic;" edge="1" parent="1" source="pL6HxztiAhhJJcaxuupI-16" target="pL6HxztiAhhJJcaxuupI-20">
          <mxGeometry relative="1" as="geometry" />
        </mxCell>
        <mxCell id="pL6HxztiAhhJJcaxuupI-16" value="Client A" style="sketch=0;aspect=fixed;pointerEvents=1;shadow=0;dashed=0;html=1;strokeColor=none;labelPosition=center;verticalLabelPosition=bottom;verticalAlign=top;align=center;fillColor=#00188D;shape=mxgraph.mscae.enterprise.client_application;fontFamily=Helvetica;fontSize=11;fontColor=default;labelBackgroundColor=default;" vertex="1" parent="1">
          <mxGeometry x="180" y="750" width="62.5" height="40" as="geometry" />
        </mxCell>
        <mxCell id="pL6HxztiAhhJJcaxuupI-45" style="edgeStyle=none;shape=connector;rounded=0;orthogonalLoop=1;jettySize=auto;html=1;strokeColor=default;align=center;verticalAlign=middle;fontFamily=Helvetica;fontSize=11;fontColor=default;labelBackgroundColor=default;endArrow=classic;entryX=0.025;entryY=0.588;entryDx=0;entryDy=0;entryPerimeter=0;" edge="1" parent="1" source="pL6HxztiAhhJJcaxuupI-17" target="pL6HxztiAhhJJcaxuupI-20">
          <mxGeometry relative="1" as="geometry">
            <mxPoint x="340" y="700" as="targetPoint" />
          </mxGeometry>
        </mxCell>
        <mxCell id="pL6HxztiAhhJJcaxuupI-17" value="Client B" style="sketch=0;aspect=fixed;pointerEvents=1;shadow=0;dashed=0;html=1;strokeColor=none;labelPosition=center;verticalLabelPosition=bottom;verticalAlign=top;align=center;fillColor=#00188D;shape=mxgraph.mscae.enterprise.client_application;fontFamily=Helvetica;fontSize=11;fontColor=default;labelBackgroundColor=default;" vertex="1" parent="1">
          <mxGeometry x="180" y="840" width="62.5" height="40" as="geometry" />
        </mxCell>
        <mxCell id="pL6HxztiAhhJJcaxuupI-18" value="Client C" style="sketch=0;aspect=fixed;pointerEvents=1;shadow=0;dashed=0;html=1;strokeColor=none;labelPosition=center;verticalLabelPosition=bottom;verticalAlign=top;align=center;fillColor=#00188D;shape=mxgraph.mscae.enterprise.client_application;fontFamily=Helvetica;fontSize=11;fontColor=default;labelBackgroundColor=default;" vertex="1" parent="1">
          <mxGeometry x="180" y="910" width="62.5" height="40" as="geometry" />
        </mxCell>
        <mxCell id="pL6HxztiAhhJJcaxuupI-22" value="" style="group" vertex="1" connectable="0" parent="1">
          <mxGeometry x="350" y="780" width="80" height="100" as="geometry" />
        </mxCell>
        <mxCell id="pL6HxztiAhhJJcaxuupI-19" value="" style="rhombus;whiteSpace=wrap;html=1;fontFamily=Helvetica;fontSize=11;labelBackgroundColor=default;fillColor=#d5e8d4;strokeColor=#82b366;" vertex="1" parent="pL6HxztiAhhJJcaxuupI-22">
          <mxGeometry y="20" width="80" height="80" as="geometry" />
        </mxCell>
        <mxCell id="pL6HxztiAhhJJcaxuupI-20" value="" style="rhombus;whiteSpace=wrap;html=1;fontFamily=Helvetica;fontSize=11;labelBackgroundColor=default;fillColor=#d5e8d4;strokeColor=#82b366;" vertex="1" parent="pL6HxztiAhhJJcaxuupI-22">
          <mxGeometry y="10" width="80" height="80" as="geometry" />
        </mxCell>
        <mxCell id="pL6HxztiAhhJJcaxuupI-21" value="LB" style="rhombus;whiteSpace=wrap;html=1;fontFamily=Helvetica;fontSize=11;labelBackgroundColor=default;fillColor=#d5e8d4;strokeColor=#82b366;" vertex="1" parent="pL6HxztiAhhJJcaxuupI-22">
          <mxGeometry y="1" width="80" height="80" as="geometry" />
        </mxCell>
        <mxCell id="pL6HxztiAhhJJcaxuupI-57" style="edgeStyle=none;shape=connector;rounded=0;orthogonalLoop=1;jettySize=auto;html=1;entryX=0;entryY=0.5;entryDx=0;entryDy=0;strokeColor=default;align=center;verticalAlign=middle;fontFamily=Helvetica;fontSize=11;fontColor=default;labelBackgroundColor=default;endArrow=classic;exitX=1;exitY=0.085;exitDx=0;exitDy=0;exitPerimeter=0;" edge="1" parent="1" source="pL6HxztiAhhJJcaxuupI-23" target="pL6HxztiAhhJJcaxuupI-39">
          <mxGeometry relative="1" as="geometry" />
        </mxCell>
        <mxCell id="pL6HxztiAhhJJcaxuupI-71" style="edgeStyle=none;shape=connector;rounded=0;orthogonalLoop=1;jettySize=auto;html=1;strokeColor=default;align=center;verticalAlign=middle;fontFamily=Helvetica;fontSize=11;fontColor=default;labelBackgroundColor=default;endArrow=classic;exitX=0;exitY=0.927;exitDx=0;exitDy=0;exitPerimeter=0;" edge="1" parent="1" source="pL6HxztiAhhJJcaxuupI-23" target="pL6HxztiAhhJJcaxuupI-68">
          <mxGeometry relative="1" as="geometry" />
        </mxCell>
        <mxCell id="pL6HxztiAhhJJcaxuupI-23" value="" style="rounded=1;whiteSpace=wrap;html=1;fontFamily=Helvetica;fontSize=11;labelBackgroundColor=default;fillColor=#ffe6cc;strokeColor=#d79b00;" vertex="1" parent="1">
          <mxGeometry x="480" y="700" width="120" height="260" as="geometry" />
        </mxCell>
        <mxCell id="pL6HxztiAhhJJcaxuupI-24" value="Chat Server 1" style="rounded=1;whiteSpace=wrap;html=1;fontFamily=Helvetica;fontSize=11;fontColor=default;labelBackgroundColor=default;" vertex="1" parent="1">
          <mxGeometry x="487.5" y="720" width="105" height="40" as="geometry" />
        </mxCell>
        <mxCell id="pL6HxztiAhhJJcaxuupI-59" style="edgeStyle=none;shape=connector;rounded=0;orthogonalLoop=1;jettySize=auto;html=1;entryX=0;entryY=0;entryDx=0;entryDy=0;strokeColor=default;align=center;verticalAlign=middle;fontFamily=Helvetica;fontSize=11;fontColor=default;labelBackgroundColor=default;endArrow=classic;exitX=1;exitY=0.75;exitDx=0;exitDy=0;" edge="1" parent="1" source="pL6HxztiAhhJJcaxuupI-25" target="pL6HxztiAhhJJcaxuupI-32">
          <mxGeometry relative="1" as="geometry" />
        </mxCell>
        <mxCell id="pL6HxztiAhhJJcaxuupI-25" value="Chat Server 2" style="rounded=1;whiteSpace=wrap;html=1;fontFamily=Helvetica;fontSize=11;fontColor=default;labelBackgroundColor=default;" vertex="1" parent="1">
          <mxGeometry x="487.5" y="780" width="105" height="40" as="geometry" />
        </mxCell>
        <mxCell id="pL6HxztiAhhJJcaxuupI-26" value="Chat Server 3" style="rounded=1;whiteSpace=wrap;html=1;fontFamily=Helvetica;fontSize=11;fontColor=default;labelBackgroundColor=default;" vertex="1" parent="1">
          <mxGeometry x="487.5" y="840" width="105" height="40" as="geometry" />
        </mxCell>
        <mxCell id="pL6HxztiAhhJJcaxuupI-61" style="edgeStyle=none;shape=connector;rounded=0;orthogonalLoop=1;jettySize=auto;html=1;entryX=0;entryY=0.5;entryDx=0;entryDy=0;strokeColor=default;align=center;verticalAlign=middle;fontFamily=Helvetica;fontSize=11;fontColor=default;labelBackgroundColor=default;endArrow=classic;" edge="1" parent="1" source="pL6HxztiAhhJJcaxuupI-27" target="pL6HxztiAhhJJcaxuupI-30">
          <mxGeometry relative="1" as="geometry" />
        </mxCell>
        <mxCell id="pL6HxztiAhhJJcaxuupI-27" value="Chat Server 4" style="rounded=1;whiteSpace=wrap;html=1;fontFamily=Helvetica;fontSize=11;fontColor=default;labelBackgroundColor=default;" vertex="1" parent="1">
          <mxGeometry x="487.5" y="900" width="105" height="40" as="geometry" />
        </mxCell>
        <mxCell id="pL6HxztiAhhJJcaxuupI-28" value="Chat Servers" style="text;html=1;align=center;verticalAlign=middle;resizable=0;points=[];autosize=1;strokeColor=none;fillColor=none;fontFamily=Helvetica;fontSize=11;fontColor=default;labelBackgroundColor=default;" vertex="1" parent="1">
          <mxGeometry x="502.5" y="960" width="90" height="30" as="geometry" />
        </mxCell>
        <mxCell id="pL6HxztiAhhJJcaxuupI-29" value="" style="group" vertex="1" connectable="0" parent="1">
          <mxGeometry x="660" y="810" width="80" height="100" as="geometry" />
        </mxCell>
        <mxCell id="pL6HxztiAhhJJcaxuupI-30" value="" style="rhombus;whiteSpace=wrap;html=1;fontFamily=Helvetica;fontSize=11;labelBackgroundColor=default;fillColor=#d5e8d4;strokeColor=#82b366;" vertex="1" parent="pL6HxztiAhhJJcaxuupI-29">
          <mxGeometry y="20" width="80" height="80" as="geometry" />
        </mxCell>
        <mxCell id="pL6HxztiAhhJJcaxuupI-31" value="" style="rhombus;whiteSpace=wrap;html=1;fontFamily=Helvetica;fontSize=11;labelBackgroundColor=default;fillColor=#d5e8d4;strokeColor=#82b366;" vertex="1" parent="pL6HxztiAhhJJcaxuupI-29">
          <mxGeometry y="10" width="80" height="80" as="geometry" />
        </mxCell>
        <mxCell id="pL6HxztiAhhJJcaxuupI-32" value="LB" style="rhombus;whiteSpace=wrap;html=1;fontFamily=Helvetica;fontSize=11;labelBackgroundColor=default;fillColor=#d5e8d4;strokeColor=#82b366;" vertex="1" parent="pL6HxztiAhhJJcaxuupI-29">
          <mxGeometry width="80" height="80" as="geometry" />
        </mxCell>
        <mxCell id="pL6HxztiAhhJJcaxuupI-33" value="" style="rounded=1;whiteSpace=wrap;html=1;fontFamily=Helvetica;fontSize=11;labelBackgroundColor=default;fillColor=#ffe6cc;strokeColor=#d79b00;" vertex="1" parent="1">
          <mxGeometry x="780" y="840" width="120" height="260" as="geometry" />
        </mxCell>
        <mxCell id="pL6HxztiAhhJJcaxuupI-34" value="Cache Server 1" style="rounded=1;whiteSpace=wrap;html=1;fontFamily=Helvetica;fontSize=11;fontColor=default;labelBackgroundColor=default;" vertex="1" parent="1">
          <mxGeometry x="787.5" y="860" width="105" height="40" as="geometry" />
        </mxCell>
        <mxCell id="pL6HxztiAhhJJcaxuupI-35" value="Cache&amp;nbsp;Server 2" style="rounded=1;whiteSpace=wrap;html=1;fontFamily=Helvetica;fontSize=11;fontColor=default;labelBackgroundColor=default;" vertex="1" parent="1">
          <mxGeometry x="787.5" y="920" width="105" height="40" as="geometry" />
        </mxCell>
        <mxCell id="pL6HxztiAhhJJcaxuupI-36" value="Cache&amp;nbsp;Server 3" style="rounded=1;whiteSpace=wrap;html=1;fontFamily=Helvetica;fontSize=11;fontColor=default;labelBackgroundColor=default;" vertex="1" parent="1">
          <mxGeometry x="787.5" y="980" width="105" height="40" as="geometry" />
        </mxCell>
        <mxCell id="pL6HxztiAhhJJcaxuupI-37" value="Cache&amp;nbsp;Server 4" style="rounded=1;whiteSpace=wrap;html=1;fontFamily=Helvetica;fontSize=11;fontColor=default;labelBackgroundColor=default;" vertex="1" parent="1">
          <mxGeometry x="787.5" y="1040" width="105" height="40" as="geometry" />
        </mxCell>
        <mxCell id="pL6HxztiAhhJJcaxuupI-38" value="&lt;span style=&quot;text-wrap-mode: wrap;&quot;&gt;Cache&lt;/span&gt;&amp;nbsp;Servers" style="text;html=1;align=center;verticalAlign=middle;resizable=0;points=[];autosize=1;strokeColor=none;fillColor=none;fontFamily=Helvetica;fontSize=11;fontColor=default;labelBackgroundColor=default;" vertex="1" parent="1">
          <mxGeometry x="797.5" y="1100" width="100" height="30" as="geometry" />
        </mxCell>
        <mxCell id="pL6HxztiAhhJJcaxuupI-39" value="" style="rounded=1;whiteSpace=wrap;html=1;fontFamily=Helvetica;fontSize=11;fontColor=#333333;labelBackgroundColor=default;fillColor=#f5f5f5;strokeColor=#666666;" vertex="1" parent="1">
          <mxGeometry x="720" y="610" width="240" height="160" as="geometry" />
        </mxCell>
        <mxCell id="pL6HxztiAhhJJcaxuupI-40" value="DB Shard 1" style="shape=cylinder3;whiteSpace=wrap;html=1;boundedLbl=1;backgroundOutline=1;size=15;fontFamily=Helvetica;fontSize=11;fontColor=default;labelBackgroundColor=default;" vertex="1" parent="1">
          <mxGeometry x="730" y="620" width="100" height="60" as="geometry" />
        </mxCell>
        <mxCell id="pL6HxztiAhhJJcaxuupI-41" value="DB Shard 2&lt;span style=&quot;color: rgba(0, 0, 0, 0); font-family: monospace; font-size: 0px; text-align: start; text-wrap-mode: nowrap; background-color: rgb(236, 236, 236);&quot;&gt;%3CmxGraphModel%3E%3Croot%3E%3CmxCell%20id%3D%220%22%2F%3E%3CmxCell%20id%3D%221%22%20parent%3D%220%22%2F%3E%3CmxCell%20id%3D%222%22%20value%3D%22DB%20Shard%201%22%20style%3D%22shape%3Dcylinder3%3BwhiteSpace%3Dwrap%3Bhtml%3D1%3BboundedLbl%3D1%3BbackgroundOutline%3D1%3Bsize%3D15%3BfontFamily%3DHelvetica%3BfontSize%3D11%3BfontColor%3Ddefault%3BlabelBackgroundColor%3Ddefault%3B%22%20vertex%3D%221%22%20parent%3D%221%22%3E%3CmxGeometry%20x%3D%22760%22%20y%3D%22590%22%20width%3D%22100%22%20height%3D%2260%22%20as%3D%22geometry%22%2F%3E%3C%2FmxCell%3E%3C%2Froot%3E%3C%2FmxGraphModel%3E&lt;/span&gt;" style="shape=cylinder3;whiteSpace=wrap;html=1;boundedLbl=1;backgroundOutline=1;size=15;fontFamily=Helvetica;fontSize=11;fontColor=default;labelBackgroundColor=default;" vertex="1" parent="1">
          <mxGeometry x="850" y="620" width="100" height="60" as="geometry" />
        </mxCell>
        <mxCell id="pL6HxztiAhhJJcaxuupI-42" value="DB Shard 3&lt;span style=&quot;color: rgba(0, 0, 0, 0); font-family: monospace; font-size: 0px; text-align: start; text-wrap-mode: nowrap; background-color: rgb(236, 236, 236);&quot;&gt;%3CmxGraphModel%3E%3Croot%3E%3CmxCell%20id%3D%220%22%2F%3E%3CmxCell%20id%3D%221%22%20parent%3D%220%22%2F%3E%3CmxCell%20id%3D%222%22%20value%3D%22DB%20Shard%201%22%20style%3D%22shape%3Dcylinder3%3BwhiteSpace%3Dwrap%3Bhtml%3D1%3BboundedLbl%3D1%3BbackgroundOutline%3D1%3Bsize%3D15%3BfontFamily%3DHelvetica%3BfontSize%3D11%3BfontColor%3Ddefault%3BlabelBackgroundColor%3Ddefault%3B%22%20vertex%3D%221%22%20parent%3D%221%22%3E%3CmxGeometry%20x%3D%22760%22%20y%3D%22590%22%20width%3D%22100%22%20height%3D%2260%22%20as%3D%22geometry%22%2F%3E%3C%2FmxCell%3E%3C%2Froot%3E%3C%2FmxGraphModel%3&lt;/span&gt;" style="shape=cylinder3;whiteSpace=wrap;html=1;boundedLbl=1;backgroundOutline=1;size=15;fontFamily=Helvetica;fontSize=11;fontColor=default;labelBackgroundColor=default;" vertex="1" parent="1">
          <mxGeometry x="730" y="690" width="100" height="60" as="geometry" />
        </mxCell>
        <mxCell id="pL6HxztiAhhJJcaxuupI-43" value="DB Shard 4&lt;span style=&quot;color: rgba(0, 0, 0, 0); font-family: monospace; font-size: 0px; text-align: start; text-wrap-mode: nowrap; background-color: rgb(236, 236, 236);&quot;&gt;%3CmxGraphModel%3E%3Croot%3E%3CmxCell%20id%3D%220%22%2F%3E%3CmxCell%20id%3D%221%22%20parent%3D%220%22%2F%3E%3CmxCell%20id%3D%222%22%20value%3D%22DB%20Shard%201%22%20style%3D%22shape%3Dcylinder3%3BwhiteSpace%3Dwrap%3Bhtml%3D1%3BboundedLbl%3D1%3BbackgroundOutline%3D1%3Bsize%3D15%3BfontFamily%3DHelvetica%3BfontSize%3D11%3BfontColor%3Ddefault%3BlabelBackgroundColor%3Ddefault%3B%22%20vertex%3D%221%22%20parent%3D%221%22%3E%3CmxGeometry%20x%3D%22760%22%20y%3D%22590%22%20width%3D%22100%22%20height%3D%2260%22%20as%3D%22geometry%22%2F%3E%3C%2FmxCell%3E%3C%2Froot%3E%3C%2FmxGraphModel%3&lt;/span&gt;" style="shape=cylinder3;whiteSpace=wrap;html=1;boundedLbl=1;backgroundOutline=1;size=15;fontFamily=Helvetica;fontSize=11;fontColor=default;labelBackgroundColor=default;" vertex="1" parent="1">
          <mxGeometry x="850" y="690" width="100" height="60" as="geometry" />
        </mxCell>
        <mxCell id="pL6HxztiAhhJJcaxuupI-46" style="edgeStyle=none;shape=connector;rounded=0;orthogonalLoop=1;jettySize=auto;html=1;entryX=0.152;entryY=0.625;entryDx=0;entryDy=0;entryPerimeter=0;strokeColor=default;align=center;verticalAlign=middle;fontFamily=Helvetica;fontSize=11;fontColor=default;labelBackgroundColor=default;endArrow=classic;" edge="1" parent="1" source="pL6HxztiAhhJJcaxuupI-18" target="pL6HxztiAhhJJcaxuupI-19">
          <mxGeometry relative="1" as="geometry" />
        </mxCell>
        <mxCell id="pL6HxztiAhhJJcaxuupI-47" style="edgeStyle=none;shape=connector;rounded=0;orthogonalLoop=1;jettySize=auto;html=1;exitX=1;exitY=0;exitDx=0;exitDy=0;entryX=0;entryY=0.5;entryDx=0;entryDy=0;strokeColor=default;align=center;verticalAlign=middle;fontFamily=Helvetica;fontSize=11;fontColor=default;labelBackgroundColor=default;endArrow=classic;" edge="1" parent="1" source="pL6HxztiAhhJJcaxuupI-21" target="pL6HxztiAhhJJcaxuupI-24">
          <mxGeometry relative="1" as="geometry" />
        </mxCell>
        <mxCell id="pL6HxztiAhhJJcaxuupI-48" style="edgeStyle=none;shape=connector;rounded=0;orthogonalLoop=1;jettySize=auto;html=1;strokeColor=default;align=center;verticalAlign=middle;fontFamily=Helvetica;fontSize=11;fontColor=default;labelBackgroundColor=default;endArrow=classic;" edge="1" parent="1" source="pL6HxztiAhhJJcaxuupI-21" target="pL6HxztiAhhJJcaxuupI-25">
          <mxGeometry relative="1" as="geometry" />
        </mxCell>
        <mxCell id="pL6HxztiAhhJJcaxuupI-49" style="edgeStyle=none;shape=connector;rounded=0;orthogonalLoop=1;jettySize=auto;html=1;entryX=0;entryY=0.5;entryDx=0;entryDy=0;strokeColor=default;align=center;verticalAlign=middle;fontFamily=Helvetica;fontSize=11;fontColor=default;labelBackgroundColor=default;endArrow=classic;" edge="1" parent="1" target="pL6HxztiAhhJJcaxuupI-26">
          <mxGeometry relative="1" as="geometry">
            <mxPoint x="430" y="840" as="sourcePoint" />
          </mxGeometry>
        </mxCell>
        <mxCell id="pL6HxztiAhhJJcaxuupI-50" style="edgeStyle=none;shape=connector;rounded=0;orthogonalLoop=1;jettySize=auto;html=1;entryX=0;entryY=0.5;entryDx=0;entryDy=0;strokeColor=default;align=center;verticalAlign=middle;fontFamily=Helvetica;fontSize=11;fontColor=default;labelBackgroundColor=default;endArrow=classic;" edge="1" parent="1" target="pL6HxztiAhhJJcaxuupI-27">
          <mxGeometry relative="1" as="geometry">
            <mxPoint x="420" y="850" as="sourcePoint" />
          </mxGeometry>
        </mxCell>
        <mxCell id="pL6HxztiAhhJJcaxuupI-58" style="edgeStyle=none;shape=connector;rounded=0;orthogonalLoop=1;jettySize=auto;html=1;strokeColor=default;align=center;verticalAlign=middle;fontFamily=Helvetica;fontSize=11;fontColor=default;labelBackgroundColor=default;endArrow=classic;exitX=1;exitY=0.5;exitDx=0;exitDy=0;" edge="1" parent="1" source="pL6HxztiAhhJJcaxuupI-24" target="pL6HxztiAhhJJcaxuupI-32">
          <mxGeometry relative="1" as="geometry" />
        </mxCell>
        <mxCell id="pL6HxztiAhhJJcaxuupI-60" style="edgeStyle=none;shape=connector;rounded=0;orthogonalLoop=1;jettySize=auto;html=1;entryX=0.088;entryY=0.475;entryDx=0;entryDy=0;entryPerimeter=0;strokeColor=default;align=center;verticalAlign=middle;fontFamily=Helvetica;fontSize=11;fontColor=default;labelBackgroundColor=default;endArrow=classic;exitX=1;exitY=1;exitDx=0;exitDy=0;" edge="1" parent="1" source="pL6HxztiAhhJJcaxuupI-26" target="pL6HxztiAhhJJcaxuupI-32">
          <mxGeometry relative="1" as="geometry" />
        </mxCell>
        <mxCell id="pL6HxztiAhhJJcaxuupI-62" style="edgeStyle=none;shape=connector;rounded=0;orthogonalLoop=1;jettySize=auto;html=1;entryX=0;entryY=0.5;entryDx=0;entryDy=0;strokeColor=default;align=center;verticalAlign=middle;fontFamily=Helvetica;fontSize=11;fontColor=default;labelBackgroundColor=default;endArrow=classic;exitX=0.95;exitY=0.588;exitDx=0;exitDy=0;exitPerimeter=0;" edge="1" parent="1" source="pL6HxztiAhhJJcaxuupI-30" target="pL6HxztiAhhJJcaxuupI-34">
          <mxGeometry relative="1" as="geometry" />
        </mxCell>
        <mxCell id="pL6HxztiAhhJJcaxuupI-63" style="edgeStyle=none;shape=connector;rounded=0;orthogonalLoop=1;jettySize=auto;html=1;entryX=0;entryY=0.5;entryDx=0;entryDy=0;strokeColor=default;align=center;verticalAlign=middle;fontFamily=Helvetica;fontSize=11;fontColor=default;labelBackgroundColor=default;endArrow=classic;" edge="1" parent="1" target="pL6HxztiAhhJJcaxuupI-35">
          <mxGeometry relative="1" as="geometry">
            <mxPoint x="720" y="890" as="sourcePoint" />
          </mxGeometry>
        </mxCell>
        <mxCell id="pL6HxztiAhhJJcaxuupI-64" style="edgeStyle=none;shape=connector;rounded=0;orthogonalLoop=1;jettySize=auto;html=1;entryX=0;entryY=0.5;entryDx=0;entryDy=0;strokeColor=default;align=center;verticalAlign=middle;fontFamily=Helvetica;fontSize=11;fontColor=default;labelBackgroundColor=default;endArrow=classic;exitX=0.625;exitY=0.838;exitDx=0;exitDy=0;exitPerimeter=0;" edge="1" parent="1" source="pL6HxztiAhhJJcaxuupI-30" target="pL6HxztiAhhJJcaxuupI-36">
          <mxGeometry relative="1" as="geometry">
            <mxPoint x="740" y="880" as="sourcePoint" />
          </mxGeometry>
        </mxCell>
        <mxCell id="pL6HxztiAhhJJcaxuupI-65" style="edgeStyle=none;shape=connector;rounded=0;orthogonalLoop=1;jettySize=auto;html=1;entryX=0;entryY=0.5;entryDx=0;entryDy=0;strokeColor=default;align=center;verticalAlign=middle;fontFamily=Helvetica;fontSize=11;fontColor=default;labelBackgroundColor=default;endArrow=classic;exitX=0.5;exitY=1;exitDx=0;exitDy=0;" edge="1" parent="1" source="pL6HxztiAhhJJcaxuupI-30" target="pL6HxztiAhhJJcaxuupI-37">
          <mxGeometry relative="1" as="geometry">
            <mxPoint x="720" y="890" as="sourcePoint" />
          </mxGeometry>
        </mxCell>
        <mxCell id="pL6HxztiAhhJJcaxuupI-68" value="Notification Service" style="rounded=1;whiteSpace=wrap;html=1;fontFamily=Helvetica;fontSize=11;labelBackgroundColor=default;fillColor=#ffe6cc;strokeColor=#d79b00;" vertex="1" parent="1">
          <mxGeometry x="338.13" y="980" width="110" height="50" as="geometry" />
        </mxCell>
        <mxCell id="pL6HxztiAhhJJcaxuupI-72" style="edgeStyle=none;shape=connector;rounded=0;orthogonalLoop=1;jettySize=auto;html=1;entryX=0.958;entryY=0.964;entryDx=0;entryDy=0;entryPerimeter=0;strokeColor=default;align=center;verticalAlign=middle;fontFamily=Helvetica;fontSize=11;fontColor=default;labelBackgroundColor=default;endArrow=classic;" edge="1" parent="1" source="pL6HxztiAhhJJcaxuupI-68" target="pL6HxztiAhhJJcaxuupI-69">
          <mxGeometry relative="1" as="geometry" />
        </mxCell>
      </root>
    </mxGraphModel>
  </diagram>
</mxfile>
